<svg id="Layer_1" data-name="Layer 1" xmlns="http://www.w3.org/2000/svg" viewBox="0 0 423.15 55.36"><defs><style>.cls-1{fill:#fff;}.cls-2{fill:#ffffff;}</style></defs><title>BFA Global-BrandIdentity</title><path class="cls-1" d="M0,54.31V.75H18.48c14,0,19.71,5.52,19.71,14.26,0,5-2.89,9.37-9.52,11.63,7.37,1.67,11,5.63,11,11.93,0,9.07-7,15.74-19.49,15.74ZM10,23.94h8c6.77,0,10.33-2.37,10.33-7.74,0-5.59-3.07-7.74-9.78-7.74H10Zm0,6.89v15.7H20.07c7.38,0,9.78-3.78,9.78-8.18,0-4.63-2.85-7.52-9.81-7.52Z"/><polygon class="cls-1" points="78.33 0.75 78.33 8.68 54.59 8.68 54.59 24.53 74.63 24.53 74.63 32.5 54.59 32.5 54.59 54.31 44.56 54.31 44.56 0.75 78.33 0.75"/><path class="cls-1" d="M82.85,52.05a3.49,3.49,0,0,1-3.29,2.26H71.81L92.85.75H103l21,53.56h-7.71A3.35,3.35,0,0,1,113,52.05L100,16.27c-.59-1.59-1.33-3.78-2-6.29-.71,2.51-1.37,4.74-2,6.37Z"/><path class="cls-2" d="M90.88,40.22,96,25.36c.56-1.47,1.16-3.47,1.8-5.74.63,2.27,1.3,4.24,1.84,5.68l7,19.12s-3.92-4.14-15.78-4.2"/><path class="cls-1" d="M190.34,10.18l-4.09,3.87a31.15,31.15,0,0,0-9.65-6.58,26,26,0,0,0-10.23-2.24,24.4,24.4,0,0,0-11.81,3,22,22,0,0,0-8.69,8.26,21.25,21.25,0,0,0-3.08,11A21.72,21.72,0,0,0,146,38.86a22.59,22.59,0,0,0,8.81,8.42,25.39,25.39,0,0,0,12.33,3.07,21.06,21.06,0,0,0,13.76-4.59,18.08,18.08,0,0,0,6.66-11.9h-16.8V28.77h22.72Q193.39,41,186.2,48.18T167,55.36q-14.61,0-23.14-10a26.43,26.43,0,0,1-6.56-17.74A27.18,27.18,0,0,1,141,13.72,26.73,26.73,0,0,1,151.35,3.64,30,30,0,0,1,166.19,0,33,33,0,0,1,178.8,2.42,37.62,37.62,0,0,1,190.34,10.18Z"/><path class="cls-1" d="M203.49,1.33h5.27V49H229V54H203.49Z"/><path class="cls-1" d="M262.49,0a27.34,27.34,0,0,1,20,8,26.61,26.61,0,0,1,8.07,19.67,26.74,26.74,0,0,1-8.05,19.64,28.18,28.18,0,0,1-39.42,0,26.41,26.41,0,0,1-8.07-19.43,28.1,28.1,0,0,1,3.67-14.08A27.13,27.13,0,0,1,262.49,0Zm.23,5.12a21.73,21.73,0,0,0-11.09,3.05,22,22,0,0,0-8.18,8.21A22.89,22.89,0,0,0,240.5,27.9,21.54,21.54,0,0,0,247,43.77a21.47,21.47,0,0,0,15.7,6.47,22.5,22.5,0,0,0,11.36-3,21.32,21.32,0,0,0,8.15-8.14,22.86,22.86,0,0,0,2.92-11.47,22.29,22.29,0,0,0-2.92-11.35A21.88,21.88,0,0,0,274,8.17,22.32,22.32,0,0,0,262.72,5.12Z"/><path class="cls-1" d="M301.31,1.33H311.7c4.18,0,7.4.49,9.64,1.48a11.79,11.79,0,0,1,5.32,4.57,12.49,12.49,0,0,1,2,6.85,12.28,12.28,0,0,1-1.71,6.39,12.68,12.68,0,0,1-5,4.68,19.32,19.32,0,0,1,6.32,3.28,13,13,0,0,1,3.45,4.55,13.66,13.66,0,0,1,1.23,5.78,14.24,14.24,0,0,1-4.64,10.74Q323.6,54,315.79,54H301.31Zm5.16,5.16V23.36h3a23.62,23.62,0,0,0,8.08-1,8.67,8.67,0,0,0,4.09-3.22,8.44,8.44,0,0,0,1.51-4.89,6.9,6.9,0,0,0-2.53-5.68c-1.69-1.38-4.38-2.06-8.06-2.06Zm0,22.18V48.88H313q5.78,0,8.47-1.13a9.63,9.63,0,0,0,4.32-3.53,9.2,9.2,0,0,0-.66-11.33,11.87,11.87,0,0,0-6.31-3.58,46.3,46.3,0,0,0-9.38-.64Z"/><path class="cls-1" d="M364.85,1.33,389.43,54h-5.69l-8.29-17.35H352.74L344.53,54h-5.88L363.56,1.33Zm-.67,11.19-9,19.08h18Z"/><path class="cls-1" d="M397.6,1.33h5.26V49h20.29V54H397.6Z"/></svg>