<?xml version="1.0" encoding="UTF-8"?>
<svg width="108px" height="15px" viewBox="0 0 108 15" version="1.1" xmlns="http://www.w3.org/2000/svg" xmlns:xlink="http://www.w3.org/1999/xlink">
    <!-- Generator: Sketch 52.3 (67297) - http://www.bohemiancoding.com/sketch -->
    <title>Group 42</title>
    <desc>Created with Sketch.</desc>
    <defs>
        <polygon id="path-1" points="0.133287273 0.205692857 7.11490909 0.205692857 7.11490909 8.84355 0.133287273 8.84355"></polygon>
        <polygon id="path-3" points="4.36363636e-05 0.192771429 3.51495273 0.192771429 3.51495273 3.64285714 4.36363636e-05 3.64285714"></polygon>
        <polygon id="path-5" points="0.0540886105 0.120544806 3.72883082 0.120544806 3.72883082 13.0714286 0.0540886105 13.0714286"></polygon>
    </defs>
    <g id="Symbols" stroke="none" stroke-width="1" fill="none" fill-rule="evenodd">
        <g id="Main-Nav" transform="translate(-991.000000, -12.000000)">
            <g id="Nav">
                <g id="Group" transform="translate(969.000000, 0.000000)">
                    <g id="Group-18">
                        <g id="Group-42" transform="translate(22.000000, 12.000000)">
                            <path d="M28.2851345,10.5707571 C27.1222255,11.6893286 26.1164073,12.2293286 24.4647709,12.2293286 C21.7069527,12.2293286 19.8087709,10.3414714 19.8087709,7.68218571 C19.8087709,4.95218571 21.9644073,3.15861429 24.4887709,3.15861429 C25.9625891,3.16075714 27.3624436,3.79375714 28.3222255,4.89218571 L27.1462255,6.00004286 C26.3498618,5.17075714 25.4814982,4.7379 24.45168,4.7379 C22.8177164,4.71518571 21.4748073,5.99768571 21.45168,7.60225714 C21.4512436,7.62882857 21.4512436,7.65561429 21.45168,7.68218571 C21.45168,9.4629 22.7607709,10.6543286 24.4887709,10.6543286 C25.57968,10.6543286 26.3127709,10.2257571 27.1462255,9.4029 L28.2851345,10.5707571 Z" id="Fill-1" fill="#FFFFFF"></path>
                            <polygon id="Fill-3" fill="#FFFFFF" points="37.0909309 3.37502143 41.9520218 3.37502143 41.9520218 4.98859286 40.3352945 4.98859286 40.3352945 12.0128786 38.6574764 12.0128786 38.6574764 4.98859286 37.0909309 4.98859286"></polygon>
                            <polygon id="Fill-5" fill="#FFFFFF" points="51.3141818 3.37502143 52.992 3.37502143 52.992 10.44645 55.4290909 10.44645 55.4290909 12.0107357 51.3141818 12.0107357"></polygon>
                            <polygon id="Fill-7" fill="#FFFFFF" points="54.98184 3.37502143 56.78184 3.37502143 58.4247491 6.46716429 60.0414764 3.37502143 61.8283855 3.37502143 59.2494764 8.27145 59.2494764 12.0128786 57.5716582 12.0128786 57.5716582 8.27145"></polygon>
                            <path d="M63.8444073,9.52277143 C64.2480436,10.2684857 64.7171345,10.6542 65.3018618,10.6542 C65.8865891,10.6542 66.3273164,10.2858429 66.3273164,9.85727143 C66.2880436,9.4722 66.0833891,9.12205714 65.7644073,8.89491429 C63.9382255,7.39491429 62.8604073,6.57205714 62.8604073,5.34634286 C62.8604073,4.12084286 63.9513164,3.16705714 65.2734982,3.16705714 C66.3884073,3.16705714 67.12368,3.7587 67.8216436,4.55134286 L66.57168,5.6337 C66.1549527,5.05727143 65.7273164,4.7442 65.24928,4.7442 C64.8129164,4.7442 64.5011345,4.99705714 64.5011345,5.34634286 C64.5011345,5.69584286 64.7583709,5.8992 65.0160436,6.11584286 C66.6567709,7.5342 67.9678255,8.2092 67.9678255,9.78441429 C67.9678255,11.2284857 66.8662255,12.2379857 65.2734982,12.2379857 C63.9884073,12.2379857 63.09168,11.6251286 62.4371345,10.3629857 L63.8444073,9.52277143 Z" id="Fill-9" fill="#FFFFFF"></path>
                            <polygon id="Fill-11" fill="#FFFFFF" points="68.69448 3.37502143 73.5577527 3.37502143 73.5577527 4.98859286 71.9412436 4.98859286 71.9412436 12.0128786 70.25448 12.0128786 70.25448 4.98859286 68.6881527 4.98859286"></polygon>
                            <polygon id="Fill-13" fill="#FFFFFF" points="78.1745236 3.37502143 82.53816 3.37502143 82.53816 4.98859286 79.8043418 4.98859286 79.8043418 6.52716429 82.5359782 6.52716429 82.5359782 8.14287857 79.8043418 8.14287857 79.8043418 12.0128786 78.1745236 12.0128786"></polygon>
                            <path d="M83.9563418,3.37502143 L85.63416,3.37502143 L85.63416,9.21430714 C85.63416,10.1528786 86.0988873,10.6328786 86.9083418,10.6328786 C87.3442691,10.6540929 87.7625236,10.4603786 88.0234691,10.11645 C88.2065236,9.84002143 88.2305236,9.44145 88.2305236,8.98502143 L88.2305236,3.37502143 L89.9083418,3.37502143 L89.9083418,8.87359286 C89.9083418,9.82287857 89.86056,10.5450214 89.1992509,11.3035929 C88.63416,11.94645 87.9010691,12.2185929 86.9454327,12.2185929 C86.0377964,12.2185929 85.3156145,11.9657357 84.7636145,11.4000214 C84.0545236,10.6778786 83.9563418,9.90002143 83.9563418,8.77716429 L83.9563418,3.37502143 Z" id="Fill-15" fill="#FFFFFF"></path>
                            <polygon id="Fill-17" fill="#FFFFFF" points="91.8545673 3.37502143 93.4582036 3.37502143 97.2327491 9.05359286 97.2327491 3.37502143 98.9105673 3.37502143 98.9105673 12.0128786 97.29384 12.0128786 93.5345673 6.34716429 93.5345673 12.0128786 91.8545673 12.0128786"></polygon>
                            <g id="Group-21" transform="translate(100.800000, 3.169286)">
                                <mask id="mask-2" fill="white">
                                    <use xlink:href="#path-1"></use>
                                </mask>
                                <g id="Clip-20"></g>
                                <path d="M1.81088727,1.81926429 L1.81088727,7.23212143 L2.68361455,7.23212143 C3.60216,7.23212143 4.25234182,7.11212143 4.76725091,6.56997857 C5.17088727,6.14140714 5.42179636,5.43855 5.42179636,4.59855 C5.42179636,2.79212143 4.40528727,1.81283571 2.49619636,1.81283571 L1.81088727,1.81926429 Z M0.133287273,0.205692857 L2.25183273,0.205692857 C3.79656,0.205692857 4.88506909,0.387835714 5.84070545,1.30069286 C6.63706909,2.05926429 7.11510545,3.26140714 7.11510545,4.63283571 C7.11510545,6.11376429 6.55197818,7.33926429 5.60725091,8.06140714 C4.60361455,8.83283571 3.56288727,8.84355 2.27561455,8.84355 L0.133287273,8.84355 L0.133287273,0.205692857 Z" id="Fill-19" fill="#FFFFFF" mask="url(#mask-2)"></path>
                            </g>
                            <path d="M43.7040218,11.6292 C43.6191491,11.8499143 43.4031491,11.9954143 43.1629309,11.9934857 L41.8909309,11.9934857 L45.3382036,3.37062857 L47.0072945,3.37062857 L50.4611127,11.9999143 L49.19784,11.9999143 C48.9536945,12.0117 48.7311491,11.8632 48.6523855,11.6356286 L46.50984,5.87562857 C46.4116582,5.62062857 46.2916582,5.26727143 46.17384,4.86205714 C46.0582036,5.26727143 45.9556582,5.62491429 45.8465673,5.88848571 L43.7040218,11.6292 Z" id="Fill-22" fill="#FFFFFF"></path>
                            <path d="M45.0196145,9.72638571 L45.8617964,7.33281429 C45.9556145,7.0971 46.0537964,6.77352857 46.1563418,6.40924286 C46.2610691,6.77352857 46.3745236,7.09067143 46.4574327,7.3221 L47.6050691,10.4013857 C47.6050691,10.4013857 46.9636145,9.73495714 45.0196145,9.72638571" id="Fill-24" fill="#FFFFFF"></path>
                            <path d="M30.82032,11.6292 C30.7354473,11.8499143 30.5194473,11.9954143 30.2792291,11.9934857 L29.0181382,11.9934857 L32.4654109,3.37062857 L34.1345018,3.37062857 L37.5774109,11.9999143 L36.3141382,11.9999143 C36.0699927,12.0117 35.8474473,11.8632 35.7686836,11.6356286 L33.6261382,5.87562857 C33.5279564,5.62062857 33.4079564,5.26727143 33.2901382,4.86205714 C33.1745018,5.26727143 33.0719564,5.62491429 32.9628655,5.88848571 L30.82032,11.6292 Z" id="Fill-26" fill="#FFFFFF"></path>
                            <path d="M32.1360218,9.72638571 L32.9782036,7.33281429 C33.0720218,7.0971 33.1702036,6.77352857 33.2727491,6.40924286 C33.3774764,6.77352857 33.4909309,7.09067143 33.57384,7.3221 L34.7214764,10.4013857 C34.7214764,10.4013857 34.0800218,9.73495714 32.1360218,9.72638571" id="Fill-28" fill="#FFFFFF"></path>
                            <g id="Group-32" transform="translate(0.000000, 11.312143)">
                                <mask id="mask-4" fill="white">
                                    <use xlink:href="#path-3"></use>
                                </mask>
                                <g id="Clip-31"></g>
                                <path d="M3.02622545,0.192771429 L0.161498182,0.192771429 C0.0722618182,0.192771429 4.36363636e-05,0.263914286 4.36363636e-05,0.351342857 C4.36363636e-05,2.16934286 1.50048,3.64298571 3.35131636,3.64298571 C3.44077091,3.64298571 3.51364364,3.57227143 3.51495273,3.4842 L3.51495273,0.670628571 C3.51364364,0.406414286 3.29524364,0.192771429 3.02622545,0.192771429" id="Fill-30" fill="#FFFFFF" mask="url(#mask-4)"></path>
                            </g>
                            <path d="M9.01311273,3.45214286 C9.30482182,3.45214286 9.59500364,3.49692857 9.87274909,3.585 C9.93122182,3.6045 9.99602182,3.59057143 10.0407491,3.54857143 L13.1847491,0.475714286 C13.2473673,0.411857143 13.2454036,0.310071429 13.1803855,0.248357143 C13.1646764,0.233571429 13.1461309,0.222 13.12584,0.214285714 C12.7475127,0.0728571429 12.34584,0.000214285714 11.9411127,3.04518315e-15 L3.35129455,3.04518315e-15 C1.50045818,3.04518315e-15 2.18181818e-05,1.47364286 2.18181818e-05,3.29142857 C2.18181818e-05,3.37928571 0.0720218182,3.45107143 0.161476364,3.45214286 L9.01311273,3.45214286 Z" id="Fill-33" fill="#FFFFFF"></path>
                            <path d="M5.68797818,10.9564286 C5.64325091,10.9999286 5.62797818,11.0650714 5.64870545,11.1235714 C5.74252364,11.3997857 5.79052364,11.6895 5.79052364,11.9807143 L5.79052364,14.7964286 C5.79183273,14.8842857 5.86470545,14.955 5.95416,14.955 L9.33816,14.955 C9.42783273,14.955 9.50070545,14.8842857 9.50179636,14.7964286 L9.50179636,7.61357143 C9.50070545,7.52485714 9.42630545,7.45392857 9.33597818,7.45521429 C9.29430545,7.45564286 9.25459636,7.47171429 9.22470545,7.5 L5.68797818,10.9564286 Z" id="Fill-35" fill="#FFFFFF"></path>
                            <path d="M2.18181818e-05,5.88002143 L2.18181818e-05,9.07502143 C-0.00106909091,9.18045 0.0848945455,9.26659286 0.192021818,9.26787857 L0.194203636,9.26787857 L3.03056727,9.26787857 C3.32707636,9.26809286 3.62162182,9.31437857 3.90329455,9.40502143 C3.97245818,9.42816429 4.04925818,9.40973571 4.09965818,9.35787857 L7.52074909,6.01502143 C7.59798545,5.94195 7.59994909,5.82109286 7.52554909,5.74545 C7.48824,5.70752143 7.43674909,5.68652143 7.38329455,5.68716429 L0.194203636,5.68716429 C0.08664,5.68823571 2.18181818e-05,5.77437857 2.18181818e-05,5.88002143" id="Fill-37" fill="#FFFFFF"></path>
                            <g id="Group-41" transform="translate(11.563636, 1.883571)">
                                <mask id="mask-6" fill="white">
                                    <use xlink:href="#path-5"></use>
                                </mask>
                                <g id="Clip-40"></g>
                                <path d="M0.102610909,3.23147143 C0.0576654545,3.27411429 0.0423927273,3.33861429 0.0633381818,3.39647143 C0.165010909,3.68168571 0.217374545,3.98147143 0.218247273,4.28361429 L0.218247273,12.9129 C0.219338182,13.0007571 0.292429091,13.0714714 0.381883636,13.0714714 C2.23097455,13.0691143 3.72879273,11.5961143 3.72879273,9.78004286 L3.72879273,1.4079 C3.73075636,1.00375714 3.65679273,0.602614286 3.51061091,0.225042857 C3.47897455,0.1419 3.38450182,0.0996857143 3.29984727,0.130757143 C3.27824727,0.138685714 3.25861091,0.151114286 3.24224727,0.167185714 L0.102610909,3.23147143 Z" id="Fill-39" fill="#FFFFFF" mask="url(#mask-6)"></path>
                            </g>
                        </g>
                    </g>
                </g>
            </g>
        </g>
    </g>
</svg>