<?xml version="1.0" encoding="UTF-8"?>
<svg width="216px" height="30px" viewBox="0 0 216 30" version="1.1" xmlns="http://www.w3.org/2000/svg" xmlns:xlink="http://www.w3.org/1999/xlink">
    <!-- Generator: Sketch 52.3 (67297) - http://www.bohemiancoding.com/sketch -->
    <title>Group 42</title>
    <desc>Created with Sketch.</desc>
    <defs>
        <polygon id="path-1" points="0.26681143 0.411814241 14.2424632 0.411814241 14.2424632 17.7055241 0.26681143 17.7055241"></polygon>
        <polygon id="path-3" points="8.73502801e-05 0.385944464 7.03615241 0.385944464 7.03615241 7.29330357 8.73502801e-05 7.29330357"></polygon>
        <polygon id="path-5" points="0.10827335 0.241340747 7.46428872 0.241340747 7.46428872 26.1700893 0.10827335 26.1700893"></polygon>
    </defs>
    <g id="BFA--Web-design-V3" stroke="none" stroke-width="1" fill="none" fill-rule="evenodd">
        <g id="Catalyst-Fund" transform="translate(-69.000000, -34.000000)">
            <g id="Group-18" transform="translate(69.000000, 32.000000)">
                <g id="Group-42" transform="translate(0.000000, 2.000000)">
                    <path d="M56.6205389,21.1635367 C54.2926539,23.4030099 52.27923,24.4841349 48.9730219,24.4841349 C43.4524842,24.4841349 39.652747,20.7044876 39.652747,15.380376 C39.652747,9.91468848 43.9678508,6.32380902 49.0210645,6.32380902 C51.9713202,6.3280992 54.7735172,7.59541795 56.6947866,9.79456348 L54.3406966,12.0125858 C52.746554,10.3522867 51.0082834,9.48567063 48.9468168,9.48567063 C45.6759855,9.44019473 42.9877807,12.0078666 42.941485,15.2203523 C42.9406115,15.2735505 42.9406115,15.3271778 42.941485,15.380376 C42.941485,18.9455144 45.5619934,21.3308537 49.0210645,21.3308537 C51.2048215,21.3308537 52.6723062,20.4728179 54.3406966,18.8253894 L56.6205389,21.1635367 Z" id="Fill-1" fill="#FFFFFF"></path>
                    <polygon id="Fill-3" fill="#FFFFFF" points="74.2477817 6.75707415 83.9786029 6.75707415 83.9786029 9.98757862 80.742275 9.98757862 80.742275 24.050784 77.3836568 24.050784 77.3836568 9.98757862 74.2477817 9.98757862"></polygon>
                    <polygon id="Fill-5" fill="#FFFFFF" points="102.719562 6.75707415 106.07818 6.75707415 106.07818 20.9146634 110.956693 20.9146634 110.956693 24.0464938 102.719562 24.0464938"></polygon>
                    <polygon id="Fill-7" fill="#FFFFFF" points="110.061397 6.75707415 113.664596 6.75707415 116.953334 12.9478018 120.189662 6.75707415 123.766655 6.75707415 118.604254 16.5601322 118.604254 24.050784 115.245636 24.050784 115.245636 16.5601322"></polygon>
                    <path d="M127.802282,19.065382 C128.610272,20.5583641 129.549288,21.3305963 130.719781,21.3305963 C131.890275,21.3305963 132.772513,20.5931146 132.772513,19.7350788 C132.693898,18.9641338 132.284225,18.2631186 131.645694,17.8083596 C127.990085,14.8052346 125.832533,13.1578061 125.832533,10.7038239 C125.832533,8.2502708 128.01629,6.34071232 130.663004,6.34071232 C132.894803,6.34071232 134.366656,7.52523063 135.763823,9.11216768 L133.261675,11.2791369 C132.427479,10.1250788 131.571447,9.49828375 130.614524,9.49828375 C129.741022,9.49828375 129.116904,10.0045248 129.116904,10.7038239 C129.116904,11.4035521 129.631834,11.81069 130.147637,12.2444271 C133.432008,15.0840963 136.056447,16.4355025 136.056447,19.5892128 C136.056447,22.4803641 133.851289,24.5014672 130.663004,24.5014672 C128.090538,24.5014672 126.29549,23.2744762 124.985236,20.747561 L127.802282,19.065382 Z" id="Fill-9" fill="#FFFFFF"></path>
                    <polygon id="Fill-11" fill="#FFFFFF" points="137.511047 6.75707415 147.246236 6.75707415 147.246236 9.98757862 144.010345 9.98757862 144.010345 24.050784 140.63382 24.050784 140.63382 9.98757862 137.498382 9.98757862"></polygon>
                    <polygon id="Fill-13" fill="#FFFFFF" points="156.487983 6.75707415 165.223011 6.75707415 165.223011 9.98757862 159.750516 9.98757862 159.750516 13.0679268 165.218644 13.0679268 165.218644 16.3027215 159.750516 16.3027215 159.750516 24.050784 156.487983 24.050784"></polygon>
                    <path d="M168.061895,6.75707415 L171.420513,6.75707415 L171.420513,18.4478108 C171.420513,20.326909 172.350794,21.287909 173.971142,21.287909 C174.843771,21.3303817 175.681023,20.9425496 176.203378,20.2539759 C176.569812,19.7005429 176.617855,18.9025697 176.617855,17.9887617 L176.617855,6.75707415 L179.976473,6.75707415 L179.976473,17.7656724 C179.976473,19.6662215 179.880825,21.1120117 178.557031,22.6307349 C177.425845,23.9177884 175.95836,24.4626411 174.045389,24.4626411 C172.228504,24.4626411 170.782856,23.9564 169.677875,22.8237929 C168.258433,21.3780027 168.061895,19.8206679 168.061895,17.5726143 L168.061895,6.75707415 Z" id="Fill-15" fill="#FFFFFF"></path>
                    <polygon id="Fill-17" fill="#FFFFFF" points="183.872383 6.75707415 187.082506 6.75707415 194.638305 18.1260474 194.638305 6.75707415 197.996923 6.75707415 197.996923 24.050784 194.760596 24.050784 187.235369 12.7075518 187.235369 24.050784 183.872383 24.050784"></polygon>
                    <g id="Group-21" transform="translate(201.779147, 6.345174)">
                        <mask id="mask-2" fill="white">
                            <use xlink:href="#path-1"></use>
                        </mask>
                        <g id="Clip-20"></g>
                        <path d="M3.62499295,3.64231871 L3.62499295,14.4793098 L5.37199855,14.4793098 C7.21072194,14.4793098 8.51224112,14.2390598 9.54297442,13.1536446 C10.3509645,12.2956089 10.8532286,10.8884303 10.8532286,9.20668031 C10.8532286,5.59005978 8.81840385,3.62944817 4.9968291,3.62944817 L3.62499295,3.64231871 Z M0.26681143,0.411814241 L4.50766753,0.411814241 C7.59986744,0.411814241 9.77882018,0.77647942 11.6917913,2.60409549 C13.2859339,4.12281871 14.2428562,6.52960888 14.2428562,9.27532317 C14.2428562,12.2402656 13.1156009,14.6938187 11.2244673,16.1396089 C9.21541087,17.6840732 7.13210669,17.7055241 4.55527343,17.7055241 L0.26681143,17.7055241 L0.26681143,0.411814241 Z" id="Fill-19" fill="#FFFFFF" mask="url(#mask-2)"></path>
                    </g>
                    <path d="M87.4857167,23.2826275 C87.3158204,23.7245159 86.8834365,24.015819 86.4025732,24.0119579 L83.8563125,24.0119579 L90.7569846,6.74827929 L94.0981329,6.74827929 L101.011908,24.0248284 L98.4831169,24.0248284 C97.9943921,24.0484244 97.5489057,23.751115 97.3912384,23.295498 L93.1023397,11.763498 C92.9058015,11.2529668 92.6655883,10.5455163 92.4297425,9.73424357 C92.1982643,10.5455163 91.9929911,11.2615471 91.7746154,11.7892391 L87.4857167,23.2826275 Z" id="Fill-22" fill="#FFFFFF"></path>
                    <path d="M90.1192403,19.4730347 L91.8051007,14.6809053 C91.9929038,14.2089856 92.1894419,13.5611687 92.394715,12.8318383 C92.6043557,13.5611687 92.8314664,14.1961151 92.997432,14.6594544 L95.2947443,20.824441 C95.2947443,20.824441 94.0106952,19.4901954 90.1192403,19.4730347" id="Fill-24" fill="#05AFAA"></path>
                    <path d="M61.6954155,23.2826275 C61.5255192,23.7245159 61.0931353,24.015819 60.612272,24.0119579 L58.0878489,24.0119579 L64.988521,6.74827929 L68.3296692,6.74827929 L75.2216063,24.0248284 L72.6928157,24.0248284 C72.2040909,24.0484244 71.7586045,23.751115 71.6009372,23.295498 L67.3120385,11.763498 C67.1155003,11.2529668 66.8752871,10.5455163 66.6394413,9.73424357 C66.4079631,10.5455163 66.2026899,11.2615471 65.9843142,11.7892391 L61.6954155,23.2826275 Z" id="Fill-26" fill="#FFFFFF"></path>
                    <path d="M64.3291574,19.4730347 L66.0150178,14.6809053 C66.2028209,14.2089856 66.3993591,13.5611687 66.6046322,12.8318383 C66.8142729,13.5611687 67.0413836,14.1961151 67.2073491,14.6594544 L69.5046615,20.824441 C69.5046615,20.824441 68.2206124,19.4901954 64.3291574,19.4730347" id="Fill-28" fill="#05AFAA"></path>
                    <g id="Group-32" transform="translate(0.000000, 22.647853)">
                        <mask id="mask-4" fill="white">
                            <use xlink:href="#path-3"></use>
                        </mask>
                        <g id="Clip-31"></g>
                        <path d="M6.05782927,0.385944464 L0.323283386,0.385944464 C0.144652064,0.385944464 8.73502801e-05,0.528378393 8.73502801e-05,0.703417679 C8.73502801e-05,4.34320518 3.00362673,7.29356098 6.70858886,7.29356098 C6.88765693,7.29356098 7.0335319,7.15198509 7.03615241,6.97565875 L7.03615241,1.34265429 C7.0335319,0.813675268 6.59634375,0.385944464 6.05782927,0.385944464" id="Fill-30" fill="#05AFAA" mask="url(#mask-4)"></path>
                    </g>
                    <path d="M18.042244,6.91147768 C18.6261806,6.91147768 19.20706,7.00114241 19.7630445,7.17746875 C19.8800939,7.21650938 20.0098091,7.18862321 20.0993431,7.10453571 L26.3929308,0.952419643 C26.5182784,0.824572321 26.5143477,0.620788839 26.3841958,0.497231696 C26.3527497,0.467629464 26.3156258,0.4444625 26.2750079,0.429017857 C25.517681,0.145866071 24.7136217,0.000429017857 23.9034478,6.09671044e-15 L6.70854518,6.09671044e-15 C3.00358305,6.09671044e-15 4.367514e-05,2.9503558 4.367514e-05,6.58971429 C4.367514e-05,6.76561161 0.144171637,6.90933259 0.323239711,6.91147768 L18.042244,6.91147768 Z" id="Fill-33" fill="#05AFAA"></path>
                    <path d="M11.3860653,21.935683 C11.2965313,22.0227737 11.2659587,22.1531951 11.3074501,22.270317 C11.4952532,22.823321 11.5913385,23.4033531 11.5913385,23.9863884 L11.5913385,29.623683 C11.593959,29.7995804 11.739834,29.9411563 11.918902,29.9411563 L18.6929163,29.9411563 C18.8724211,29.9411563 19.018296,29.7995804 19.0204798,29.623683 L19.0204798,15.2430045 C19.018296,15.0653911 18.8693638,14.9233862 18.6885487,14.9259603 C18.6051292,14.9268183 18.5256405,14.9589946 18.4658055,15.015625 L11.3860653,21.935683 Z" id="Fill-35" fill="#05AFAA"></path>
                    <path d="M4.367514e-05,11.7722929 L4.367514e-05,18.1689492 C-0.00214008186,18.3800259 0.16993997,18.5524911 0.384384907,18.5550652 L0.388752421,18.5550652 L6.06652062,18.5550652 C6.66006578,18.5554942 7.24968017,18.6481621 7.81352623,18.8296367 C7.95197642,18.8759706 8.10571291,18.839075 8.20660249,18.7352527 L15.0548644,12.0425742 C15.2094744,11.8962791 15.2134052,11.654313 15.064473,11.5028697 C14.9897885,11.4269335 14.8867152,11.3848898 14.7797111,11.3861768 L0.388752421,11.3861768 C0.173433981,11.3883219 4.367514e-05,11.5607871 4.367514e-05,11.7722929" id="Fill-37" fill="#05AFAA"></path>
                    <g id="Group-41" transform="translate(23.147824, 3.771067)">
                        <mask id="mask-6" fill="white">
                            <use xlink:href="#path-5"></use>
                        </mask>
                        <g id="Clip-40"></g>
                        <path d="M0.205404184,6.46967509 C0.115433395,6.55504964 0.0848607971,6.68418402 0.126788931,6.80001884 C0.330315084,7.37104161 0.43513542,7.97123759 0.436882426,8.57615277 L0.436882426,25.8527019 C0.439066183,26.0285992 0.585377902,26.1701751 0.764445976,26.1701751 C4.46591409,26.1654559 7.46421246,23.2163871 7.46421246,19.5804608 L7.46421246,2.81873313 C7.46814322,2.00960545 7.32008449,1.20648402 7.02746106,0.450554554 C6.9641321,0.284095625 6.77501875,0.199579107 6.6055592,0.261786696 C6.56232081,0.277660357 6.52301319,0.302543393 6.49025683,0.334719732 L0.205404184,6.46967509 Z" id="Fill-39" fill="#05AFAA" mask="url(#mask-6)"></path>
                    </g>
                </g>
            </g>
        </g>
    </g>
</svg>