<?xml version="1.0" encoding="UTF-8"?>
<svg width="79px" height="15px" viewBox="0 0 79 15" version="1.1" xmlns="http://www.w3.org/2000/svg" xmlns:xlink="http://www.w3.org/1999/xlink">
    <!-- Generator: Sketch 52.3 (67297) - http://www.bohemiancoding.com/sketch -->
    <title>Group 23</title>
    <desc>Created with Sketch.</desc>
    <defs>
        <polygon id="path-1" points="2.0274744e-05 0.00871621622 14.6978246 0.00871621622 14.6978246 14.5945946 2.0274744e-05 14.5945946"></polygon>
    </defs>
    <g id="BFA--Web-design-V3" stroke="none" stroke-width="1" fill="none" fill-rule="evenodd">
        <g id="Catalyst-Fund" transform="translate(-1269.000000, -44.000000)">
            <g id="Group-18" transform="translate(69.000000, 32.000000)">
                <g id="Group" transform="translate(996.000000, 0.000000)">
                    <g id="Group-8" transform="translate(167.000000, 0.000000)">
                        <g id="Group-23" transform="translate(37.000000, 12.000000)">
                            <polygon id="Fill-1" fill="#FFFFFF" points="18.896208 3.33585811 23.0544251 3.33585811 23.0544251 4.87842568 20.4802907 4.87842568 20.4802907 6.38856081 23.0544251 6.38856081 23.0544251 7.91085811 20.4802907 7.91085811 20.4802907 11.654777 18.896208 11.654777"></polygon>
                            <polygon id="Fill-2" fill="#FFFFFF" points="24.3589457 11.6467095 25.9409871 11.6467095 25.9409871 3.33589865 24.3589457 3.33589865"></polygon>
                            <polygon id="Fill-3" fill="#FFFFFF" points="27.7413705 3.33585811 29.270337 3.33585811 32.8651432 8.80883108 32.8651432 3.33585811 34.4594326 3.33585811 34.4594326 11.6466689 32.9263835 11.6466689 29.3356599 6.19599324 29.3356599 11.654777 27.7413705 11.654777"></polygon>
                            <polygon id="Fill-4" fill="#FFFFFF" points="36.0272457 3.33585811 37.5602948 3.33585811 41.1446902 8.80883108 41.1446902 3.33585811 42.7391837 3.33585811 42.7391837 11.6466689 41.2061346 11.6466689 37.6215351 6.19599324 37.6215351 11.654777 36.0272457 11.654777"></polygon>
                            <g id="Group-22" transform="translate(0.000000, 0.194007)">
                                <path d="M49.4163984,4.27293243 L48.2365018,5.30671622 C47.8282331,4.73509459 47.3995509,4.44725676 46.9688274,4.44725676 C46.7832693,4.43995946 46.6011814,4.49975676 46.4564501,4.6155 C46.3333571,4.70225676 46.2580315,4.8407027 46.2523158,4.9905 C46.2533364,5.13441892 46.3037576,5.27387838 46.3952098,5.38577027 C46.7571401,5.77090541 47.147445,6.12847297 47.5628584,6.45604054 C48.1711788,6.96137838 48.5400496,7.27962162 48.6692667,7.41077027 C48.9513804,7.67874324 49.1840935,7.99354054 49.3571995,8.34097297 C49.4943778,8.64583784 49.5639876,8.97624324 49.5613339,9.31009459 C49.5795018,9.94962162 49.3198429,10.5660405 48.8489049,11.0026622 C48.3414269,11.4591486 47.6732951,11.6987432 46.9892408,11.6695541 C46.4378739,11.6819189 45.8954889,11.5300946 45.4314915,11.2337432 C44.9395276,10.8836757 44.5484062,10.4119865 44.2967085,9.8655 L45.6378713,9.05468919 C46.0461401,9.78847297 46.5103416,10.155973 47.0300677,10.1573919 C47.2799282,10.1689459 47.5255018,10.0886757 47.7198377,9.93239189 C47.8921271,9.80083784 47.9948067,9.59854054 47.9997059,9.38306757 C47.995215,9.17752703 47.9235638,8.97908108 47.7955716,8.81752703 C47.5171323,8.49745946 47.2060315,8.20739189 46.8667602,7.95178378 C45.954892,7.21414865 45.3655561,6.64374324 45.0989566,6.24117568 C44.8446052,5.89009459 44.7025276,5.47131081 44.6906879,5.03914865 C44.6861969,4.47259459 44.9280961,3.93198649 45.3541245,3.55536486 C45.7975044,3.14854054 46.3837783,2.93022973 46.9871995,2.94725676 C47.4034295,2.94644595 47.8135354,3.04516216 48.1834269,3.23509459 C48.6557938,3.50164865 49.0740651,3.85374324 49.4163984,4.27293243" id="Fill-5" fill="#FFFFFF"></path>
                                <polygon id="Fill-7" fill="#FFFFFF" points="59.7128134 3.14185135 61.307307 3.14185135 61.307307 9.95063514 63.6301519 9.95063514 63.6301519 11.4607703 59.7128134 11.4607703"></polygon>
                                <path d="M64.7876755,3.14185135 L66.3880889,3.14185135 L66.3880889,8.51347297 C66.3697168,8.84590541 66.4111561,9.17874324 66.5105695,9.49658108 C66.5942646,9.68894595 66.7371587,9.85009459 66.9188382,9.95671622 C67.125014,10.0757027 67.3603809,10.1352973 67.5988098,10.1290135 C67.854386,10.1355 68.1066961,10.0686081 68.325324,9.93644595 C68.515169,9.82313514 68.6627581,9.65164865 68.7458408,9.44793243 C68.8440295,9.07860811 68.8832233,8.69610811 68.8621974,8.31482432 L68.8621974,3.14185135 L70.4626109,3.14185135 L70.4626109,8.10806757 C70.4862904,8.69266216 70.4391354,9.27786486 70.3217581,9.85131081 C70.0827168,10.5694865 69.5487013,11.1532703 68.8519907,11.4587432 C68.4627065,11.6125946 68.0460682,11.6869865 67.6271845,11.6776622 C67.0707142,11.693473 66.5207762,11.553 66.0410605,11.2722568 C65.6223809,11.0275946 65.2861716,10.6649595 65.0755049,10.2303649 C64.8836186,9.80185135 64.7876755,9.09441892 64.7876755,8.10806757 L64.7876755,3.14185135 Z" id="Fill-9" fill="#FFFFFF"></path>
                                <path d="M73.8961713,4.66212162 L73.8961713,9.91617568 L74.6371791,9.91617568 C75.3665512,9.91617568 75.8952592,9.83306757 76.2233031,9.66664865 C76.5731894,9.47793243 76.855099,9.18522973 77.0296339,8.82968919 C77.2509155,8.37887838 77.358086,7.88144595 77.3419594,7.38036486 C77.3419594,6.49658108 77.0935279,5.81144595 76.596869,5.32495946 C76.1492023,4.88306757 75.430037,4.66212162 74.4391687,4.66212162 L73.8961713,4.66212162 Z M72.3161713,3.14185135 L74.2044142,3.14185135 C75.4292204,3.14185135 76.3341481,3.29185135 76.9194013,3.59185135 C77.5450731,3.92205405 78.0562256,4.43124324 78.3871274,5.05333784 C78.7833522,5.7777973 78.9819749,6.59266216 78.9627863,7.41685135 C78.9693186,8.02090541 78.8596984,8.62090541 78.640254,9.18441892 C78.4475512,9.68955405 78.1442075,10.1458378 77.7522695,10.520027 C77.4064659,10.8559054 76.987378,11.1078649 76.5274633,11.2560405 C76.0865331,11.3910405 75.3236829,11.4587432 74.2391171,11.4587432 L72.3222953,11.4587432 L72.3161713,3.14185135 Z" id="Fill-11" fill="#FFFFFF"></path>
                                <path d="M51.9557075,11.1161351 C51.8740537,11.3273514 51.6695111,11.4668108 51.4412889,11.4668108 L50.2330176,11.4668108 L53.5193767,3.156 L55.1157075,3.156 L58.4045163,11.4668108 L57.1999194,11.4668108 C56.9676145,11.4769459 56.7559271,11.3344459 56.6795809,11.1161351 L54.6382372,5.56410811 C54.5443354,5.31681081 54.4341028,4.97627027 54.3195835,4.58708108 C54.2093509,4.97627027 54.1052424,5.32289189 54.007462,5.57424324 L51.9557075,11.1161351 Z" id="Fill-13" fill="#FFFFFF"></path>
                                <path d="M53.2112155,9.27972973 L54.0114222,6.9747973 C54.1012413,6.74594595 54.1951432,6.43581081 54.2931276,6.08290541 C54.3931535,6.43581081 54.497262,6.74168919 54.5809571,6.96486486 L55.6751173,9.93243243 C55.6751173,9.93243243 55.0627142,9.28783784 53.2112155,9.27972973" id="Fill-15" fill="#FFFFFF"></path>
                                <g id="Group-19">
                                    <mask id="mask-2" fill="white">
                                        <use xlink:href="#path-1"></use>
                                    </mask>
                                    <g id="Clip-18"></g>
                                    <path d="M12.9273804,12.0566149 C12.7906103,12.2145203 12.5509566,12.2323581 12.3919359,12.0965473 C12.3076284,12.0247905 12.2594527,11.9195878 12.259861,11.8093176 L12.259861,9.37688514 C12.2616982,9.20235811 12.2921142,9.0290473 12.3496801,8.8640473 C13.2766543,6.11823649 11.7866775,3.14600676 9.02126925,2.22533108 C6.25606512,1.30465541 3.26263876,2.78438514 2.3356646,5.53019595 C1.4084863,8.27620946 2.89866718,11.2486419 5.66387132,12.1691149 C6.85417881,12.5653986 8.14737003,12.5274932 9.31216072,12.0626959 C9.49220724,11.9929662 9.68409354,11.9576959 9.87761292,11.9595203 C10.1460496,11.9595203 10.4099953,12.0294527 10.6431168,12.162223 L11.5147705,12.664723 C11.6272486,12.7281689 11.6988997,12.844723 11.7046155,12.9730338 C11.7115561,13.1005338 11.6513364,13.2227635 11.5453907,13.2951284 C10.3146646,14.1472905 8.84877571,14.6011419 7.34838811,14.5946554 L6.97278088,14.5946554 C3.38205736,14.416277 0.189395866,11.2500608 0.00975762274,7.67823649 C-0.197234625,3.65337162 2.92091783,0.223844595 6.97420982,0.0183040541 C11.0275018,-0.187236486 14.4812512,2.9090473 14.6882434,6.93411486 C14.7843907,8.80262838 14.1540238,10.6364797 12.9273804,12.0566149" id="Fill-17" fill="#FFFFFF" mask="url(#mask-2)"></path>
                                </g>
                                <path d="M5.12532403,10.4634932 C5.1198124,10.5605878 5.19472972,10.6441014 5.29271421,10.6493716 C5.3502801,10.6528176 5.40600879,10.6280878 5.4417323,10.5830878 L6.35217158,9.48443919 C7.57269096,10.21275 9.15677364,9.82031757 9.89002429,8.60856081 C10.6234791,7.39639865 10.2284791,5.82362838 9.00795969,5.09552027 C7.78744031,4.36720946 6.20335762,4.75943919 5.47010698,5.97139865 C5.29230594,6.26511486 5.17594935,6.59106081 5.12736537,6.93038514 L5.12532403,10.4634932 Z" id="Fill-20" fill="#FFFFFF"></path>
                            </g>
                        </g>
                    </g>
                </g>
            </g>
        </g>
    </g>
</svg>