<?xml version="1.0" encoding="UTF-8"?>
<svg width="60px" height="60px" viewBox="0 0 60 60" version="1.1" xmlns="http://www.w3.org/2000/svg" xmlns:xlink="http://www.w3.org/1999/xlink">
    <title>Group 19</title>
    <g id="BFA--Web-design-V3" stroke="none" stroke-width="1" fill="none" fill-rule="evenodd" stroke-linecap="round">
        <g id="Catalyst-Fund-Copy" transform="translate(-764.000000, -848.000000)" stroke-width="2">
            <g id="Group-19" transform="translate(765.000000, 849.000000)">
                <path d="M54.32396,20.21445 C55.4510933,23.2517167 56.06686,26.5374167 56.06686,29.96715 C56.06686,45.4492833 43.51566,58.0004833 28.0335267,58.0004833 C12.5513933,58.0004833 0.000193333333,45.4492833 0.000193333333,29.96715 C0.000193333333,14.48405 12.5513933,1.93381667 28.0335267,1.93381667 C31.3375933,1.93381667 34.50826,2.50511667 37.45176,3.55491667" id="Stroke-1" stroke="#132835" stroke-linejoin="round"></path>
                <path d="M54.1172867,19.67534 C54.1878533,19.85514 54.2574533,20.0339733 54.3241533,20.21474" id="Stroke-3" stroke="#132835" stroke-linejoin="round"></path>
                <path d="M42.48326,22.3035133 C42.8534933,24.7395133 43.05166,27.30988 43.05166,29.9672467 C43.05166,45.4484133 36.3275267,58.00058 28.0335267,58.00058 C19.7395267,58.00058 13.01636,45.4484133 13.01636,29.9672467 C13.01636,14.4841467 19.7395267,1.93391333 28.0335267,1.93391333 C30.7778933,1.93391333 33.3501933,3.30754667 35.56386,5.70681333" id="Stroke-5" stroke="#132835" stroke-linejoin="round"></path>
                <path d="M9.49576,50.98722 C14.4363933,46.6275533 20.9265933,43.98372 28.0335267,43.98372 C35.1394933,43.98372 41.6287267,46.6275533 46.5712933,50.9862533" id="Stroke-7" stroke="#132835" stroke-linejoin="round"></path>
                <path d="M36.29524,16.7102833 C33.6833067,17.51455 30.9089733,17.9476167 28.03314,17.9476167 C20.9262067,17.9476167 14.4369733,15.3028167 9.49537333,10.9441167" id="Stroke-9" stroke="#132835" stroke-linejoin="round"></path>
                <line x1="28.0333333" y1="1.93362333" x2="28.0333333" y2="58.00029" id="Stroke-11" stroke="#132835" stroke-linejoin="round"></line>
                <line x1="0" y1="29.9669567" x2="56.0666667" y2="29.9669567" id="Stroke-13" stroke="#132835" stroke-linejoin="round"></line>
                <path d="M35.25878,11.29347 C35.25878,5.05653667 40.3144467,-9.66666667e-05 46.5523467,-9.66666667e-05 C52.78928,-9.66666667e-05 57.8449467,5.05653667 57.8449467,11.29347 C57.8449467,17.5304033 52.78928,22.5870367 46.5523467,22.5870367 C40.3144467,22.5870367 35.25878,17.5304033 35.25878,11.29347 Z" id="Stroke-15" stroke="#03AEA9" stroke-linejoin="round"></path>
                <path d="M49.2829867,9.60944 C49.36032,10.3151067 49.1727867,10.9772733 48.8073867,11.5050733 C48.6188867,11.7776733 48.42652,12.0473733 48.26122,12.3335067 L46.87502,14.73664 C46.7174533,15.00924 46.32402,15.00924 46.1664533,14.73664 L44.77832,12.32964 C44.6197867,12.0560733 44.44192,11.79604 44.2582533,11.53794 C43.9334533,11.08264 43.7420533,10.5248733 43.7420533,9.92360667 C43.7420533,8.28704 45.15532,6.98107333 46.82862,7.16087333 C48.10462,7.29717333 49.14282,8.33440667 49.2829867,9.60944 Z" id="Stroke-17" stroke="#132835"></path>
            </g>
        </g>
    </g>
</svg>