<?xml version="1.0" encoding="UTF-8"?>
<svg width="69px" height="73px" viewBox="0 0 69 73" version="1.1" xmlns="http://www.w3.org/2000/svg" xmlns:xlink="http://www.w3.org/1999/xlink">
    <title>Group 14</title>
    <g id="BFA--Web-design-V3" stroke="none" stroke-width="1" fill="none" fill-rule="evenodd" stroke-linecap="round" stroke-linejoin="round">
        <g id="Catalyst-Fund-Copy" transform="translate(-687.000000, -982.000000)" stroke-width="2.5">
            <g id="Group-14" transform="translate(688.000000, 984.000000)">
                <polygon id="Stroke-1" stroke="#132835" points="6.065 46.0288 13.623 46.0288 13.623 0.2728 6.065 0.2728"></polygon>
                <polygon id="Stroke-3" stroke="#132835" points="17.221 46.0288 24.779 46.0288 24.779 9.4058 17.221 9.4058"></polygon>
                <polygon id="Stroke-4" stroke="#132835" points="31.632 46.0288 39.19 46.0288 39.19 3.0928 31.632 3.0928"></polygon>
                <polygon id="Stroke-6" stroke="#132835" points="42.789 46.0288 50.347 46.0288 50.347 9.4058 42.789 9.4058"></polygon>
                <g id="Group-13" transform="translate(0.000000, 0.133800)">
                    <line x1="57.161" y1="45.8952" x2="0.25" y2="45.8952" id="Stroke-7" stroke="#132835"></line>
                    <path d="M21.4081,22.5036 C21.4081,10.1396 31.4311,0.1166 43.7961,0.1166 C56.1601,0.1166 66.1831,10.1396 66.1831,22.5036 C66.1831,34.8676 56.1601,44.8916 43.7961,44.8916 C31.4311,44.8916 21.4081,34.8676 21.4081,22.5036 Z" id="Stroke-9" stroke="#05AEA9"></path>
                    <line x1="42.2567" y1="67.7502" x2="42.2567" y2="55.3252" id="Stroke-11" stroke="#132835"></line>
                </g>
            </g>
        </g>
    </g>
</svg>