<?xml version="1.0" encoding="UTF-8"?>
<svg width="57px" height="60px" viewBox="0 0 57 60" version="1.1" xmlns="http://www.w3.org/2000/svg" xmlns:xlink="http://www.w3.org/1999/xlink">
    <title>Group 9</title>
    <g id="BFA--Web-design-V3" stroke="none" stroke-width="1" fill="none" fill-rule="evenodd" stroke-linecap="round" stroke-linejoin="round">
        <g id="Catalyst-Fund-Copy" transform="translate(-616.000000, -847.000000)" stroke-width="2">
            <g id="Group-9" transform="translate(617.000000, 848.000000)">
                <path d="M44.916,9.8662 C53.753,17.6872 56.703,30.7112 51.305,41.8522 C44.803,55.2722 28.653,60.8802 15.233,54.3782 C1.814,47.8762 -3.794,31.7262 2.708,18.3072 C9.21,4.8872 25.359,-0.7198 38.779,5.7822" id="Stroke-1" stroke="#132835"></path>
                <polyline id="Stroke-3" stroke="#132835" points="34.7539 -7.10542736e-15 39.0789 5.659 32.3309 8.77"></polyline>
                <path d="M11.7578,29.7529 C11.7578,21.1919 18.6968,14.2529 27.2578,14.2529 C35.8188,14.2529 42.7578,21.1919 42.7578,29.7529 C42.7578,38.3139 35.8188,45.2529 27.2578,45.2529 C18.6968,45.2529 11.7578,38.3139 11.7578,29.7529 Z" id="Stroke-5" stroke="#132835"></path>
                <polyline id="Stroke-7" stroke="#03AEA9" points="26.7578 21.2529 26.7578 31.2529 29.7578 34.2529"></polyline>
            </g>
        </g>
    </g>
</svg>