<?xml version="1.0" encoding="UTF-8"?>
<svg width="60px" height="60px" viewBox="0 0 60 60" version="1.1" xmlns="http://www.w3.org/2000/svg" xmlns:xlink="http://www.w3.org/1999/xlink">
    <title>Group 15</title>
    <g id="BFA--Web-design-V3" stroke="none" stroke-width="1" fill="none" fill-rule="evenodd" stroke-linecap="round" stroke-linejoin="round">
        <g id="Catalyst-Fund-Copy" transform="translate(-820.000000, -984.000000)" stroke-width="2.577">
            <g id="Group-15" transform="translate(822.000000, 986.000000)">
                <path d="M4.00935294,41.4930353 C4.00935294,41.4930353 8.63347059,35.1065647 13.5178235,32.8188 C23.9626471,27.9245647 34.3382941,55.0615059 34.3382941,55.0615059" id="Stroke-1" stroke="#132835"></path>
                <path d="M50.2166824,11.1891294 C53.7973882,15.8741882 55.9245647,21.7294824 55.9245647,28.0813647 C55.9245647,43.4583059 43.4579765,55.9240706 28.0810353,55.9240706 C12.7032706,55.9240706 0.238329412,43.4583059 0.238329412,28.0813647 C0.238329412,12.7036 12.7032706,0.237835294 28.0810353,0.237835294 C30.7896235,0.237835294 33.4076235,0.624894118 35.8831529,1.34548235" id="Stroke-3" stroke="#132835"></path>
                <line x1="42.9283647" y1="11.2643176" x2="42.9283647" y2="1.71302353" id="Stroke-5" stroke="#05AEA9"></line>
                <line x1="38.1524706" y1="6.48867059" x2="47.7045882" y2="6.48867059" id="Stroke-7" stroke="#05AEA9"></line>
                <path d="M9.16003529,24.8242235 C9.16003529,20.7996353 12.4220353,17.5368118 16.4474471,17.5368118 C20.4720353,17.5368118 23.7340353,20.7996353 23.7340353,24.8242235 C23.7340353,28.8488118 20.4720353,32.1116353 16.4474471,32.1116353 C12.4220353,32.1116353 9.16003529,28.8488118 9.16003529,24.8242235 Z" id="Stroke-9" stroke="#132835"></path>
                <path d="M28.7513882,43.8874471 C28.7513882,43.8874471 36.7322118,29.5209765 43.8466824,32.0203882 C48.9352706,33.8082706 53.4935059,39.0986235 53.4935059,39.0986235" id="Stroke-11" stroke="#132835"></path>
                <path d="M34.1651059,24.0260588 C34.1651059,20.0014706 37.4279294,16.7386471 41.4525176,16.7386471 C45.4771059,16.7386471 48.7391059,20.0014706 48.7391059,24.0260588 C48.7391059,28.0506471 45.4771059,31.3134706 41.4525176,31.3134706 C37.4279294,31.3134706 34.1651059,28.0506471 34.1651059,24.0260588 Z" id="Stroke-13" stroke="#132835"></path>
            </g>
        </g>
    </g>
</svg>