<?xml version="1.0" encoding="UTF-8"?>
<svg width="60px" height="62px" viewBox="0 0 60 62" version="1.1" xmlns="http://www.w3.org/2000/svg" xmlns:xlink="http://www.w3.org/1999/xlink">
    <title>Group 17</title>
    <g id="BFA--Web-design-V3" stroke="none" stroke-width="1" fill="none" fill-rule="evenodd" stroke-linecap="round" stroke-linejoin="round">
        <g id="Catalyst-Fund-Copy" transform="translate(-282.000000, -984.000000)" stroke-width="2.074">
            <g id="Group-17" transform="translate(283.000000, 985.000000)">
                <path d="M54.2778,15.3808 C55.2848,17.1428 56.2908,18.9048 57.2958,20.6688 C57.8718,21.6788 57.7268,22.3508 56.7778,23.0258 C55.2838,24.0898 53.7868,25.1508 52.2678,26.1768 C51.8878,26.4338 51.7708,26.7048 51.8368,27.1338 C52.1478,29.1518 52.1398,31.1738 51.8368,33.1918 C51.7678,33.6528 51.9008,33.9378 52.2998,34.2078 C53.7798,35.2058 55.2328,36.2458 56.6928,37.2738 C57.7518,38.0188 57.8868,38.6528 57.2388,39.7878 C55.2998,43.1788 53.3558,46.5668 51.4278,49.9638 C51.0788,50.5798 50.6328,50.9858 49.7058,50.9798 C49.5818,50.9378 49.2778,50.8638 48.9988,50.7358 C47.3128,49.9628 45.6288,49.1848 43.9528,48.3888 C43.6078,48.2238 43.3828,48.2698 43.0478,48.4748 C41.2818,49.5518 39.4968,50.5978 37.6888,51.6018 C37.3008,51.8168 37.0978,52.0248 37.0638,52.4558 C36.9198,54.2838 36.7508,56.1088 36.6088,57.9368 C36.5298,58.9458 35.9678,59.5648 34.9528,59.5688 C30.8708,59.5868 26.7888,59.5888 22.7068,59.5678 C21.6898,59.5618 21.1958,59.0208 21.0988,57.9928 C20.9228,56.1198 20.7268,54.2478 20.5698,52.3728 C20.5378,51.9848 20.3858,51.8228 20.0478,51.6348 C18.2208,50.6148 16.4088,49.5668 14.6248,48.4738 C14.2548,48.2478 14.0138,48.2458 13.6568,48.4158 C12.0038,49.2028 10.3398,49.9688 8.6778,50.7358 C7.5968,51.2358 6.8388,50.9988 6.2478,49.9668 C4.2698,46.5148 2.2958,43.0598 0.3238,39.6048 C-0.1872,38.7088 -0.0212,37.9878 0.8638,37.3568 C2.3778,36.2778 3.8958,35.2068 5.4308,34.1608 C5.8068,33.9048 5.8428,33.6488 5.8328,33.2088 C5.7838,31.1648 5.7968,29.1198 5.8408,27.0758 C5.8498,26.6948 5.8238,26.4718 5.4898,26.2438 C3.9548,25.1968 2.4398,24.1208 0.9228,23.0478 C-0.0582,22.3548 -0.2022,21.6798 0.3938,20.6348 C2.3188,17.2638 4.2438,13.8918 6.1698,10.5218 C6.9108,9.2258 7.5408,9.0298 8.9058,9.6708 C10.4978,10.4178 12.0948,11.1548 13.6758,11.9248 C14.0508,12.1078 14.3078,12.1008 14.6438,11.8358 C16.3008,10.5288 18.1178,9.4928 20.0648,8.6748 C20.2808,8.5838 20.5068,8.2558 20.5338,8.0158 C20.7488,6.0988 20.9168,4.1758 21.0998,2.2548 C21.1888,1.3208 21.7138,0.8118 22.6538,0.8098 C26.1168,0.8028 29.5808,0.8018 33.0438,0.8068" id="Stroke-1" stroke="#132835"></path>
                <path d="M25.1987,27.549 C25.1987,25.54 26.8267,23.911 28.8367,23.911 C30.8447,23.911 32.4737,25.54 32.4737,27.549 C32.4737,29.558 30.8447,31.186 28.8367,31.186 C26.8267,31.186 25.1987,29.558 25.1987,27.549 Z" id="Stroke-3" stroke="#132835"></path>
                <path d="M22.5542,36.924 C22.5542,36.924 26.1442,31.539 28.8362,31.539 C31.5282,31.539 35.1182,36.924 35.1182,36.924" id="Stroke-5" stroke="#132835"></path>
                <path d="M17.6181,30.1933 C17.6181,23.9983 22.6401,18.9753 28.8361,18.9753 C35.0321,18.9753 40.0541,23.9983 40.0541,30.1933 C40.0541,36.3893 35.0321,41.4113 28.8361,41.4113 C22.6401,41.4113 17.6181,36.3893 17.6181,30.1933 Z" id="Stroke-7" stroke="#05AEA9"></path>
                <path d="M46.5737,6.102 L46.5737,5.331 C46.5737,4.619 45.9967,4.042 45.2847,4.042 L43.2277,4.042 C42.5157,4.042 41.9397,4.619 41.9397,5.331 L41.9397,7.388 C41.9397,8.1 42.5157,8.677 43.2277,8.677 L45.2847,8.677 C45.9967,8.677 46.5737,9.253 46.5737,9.965 L46.5737,12.023 C46.5737,12.734 45.9967,13.311 45.2847,13.311 L43.2277,13.311 C42.5157,13.311 41.9397,12.734 41.9397,12.023 L41.9397,11.251" id="Stroke-9" stroke="#132835"></path>
                <line x1="44.0654" y1="0.6284" x2="44.0654" y2="2.6994" id="Stroke-11" stroke="#132835"></line>
                <line x1="44.0654" y1="14.4941" x2="44.0654" y2="16.3061" id="Stroke-13" stroke="#132835"></line>
                <path d="M35.0376,8.9109 C35.0376,4.0099 39.0106,0.0369 43.9116,0.0369 C48.8126,0.0369 52.7856,4.0099 52.7856,8.9109 C52.7856,13.8119 48.8126,17.7849 43.9116,17.7849 C39.0106,17.7849 35.0376,13.8119 35.0376,8.9109 Z" id="Stroke-15" stroke="#05AEA9"></path>
            </g>
        </g>
    </g>
</svg>