<?xml version="1.0" encoding="UTF-8"?>
<svg width="63px" height="64px" viewBox="0 0 63 64" version="1.1" xmlns="http://www.w3.org/2000/svg" xmlns:xlink="http://www.w3.org/1999/xlink">
    <title>Group 13</title>
    <g id="BFA--Web-design-V3" stroke="none" stroke-width="1" fill="none" fill-rule="evenodd" stroke-linecap="round" stroke-linejoin="round">
        <g id="Catalyst-Fund-Copy" transform="translate(-411.000000, -983.000000)">
            <g id="Group-13" transform="translate(412.000000, 984.000000)">
                <path d="M51.8267,52.3552 C51.6977,52.3112 51.3797,52.2342 51.0887,52.1012 C49.3297,51.2942 47.5717,50.4822 45.8237,49.6512 C45.4637,49.4802 45.2287,49.5272 44.8787,49.7412 C43.0367,50.8652 41.1737,51.9572 39.2867,53.0042 C38.8827,53.2292 38.6707,53.4452 38.6357,53.8962 C38.4847,55.8022 38.3077,57.7072 38.1597,59.6142 C38.0787,60.6672 37.4917,61.3132 36.4327,61.3172 C32.1737,61.3362 27.9137,61.3382 23.6557,61.3162 C22.5937,61.3112 22.0787,60.7452 21.9767,59.6722 C21.7927,57.7182 21.5887,55.7652 21.4257,53.8092 C21.3907,53.4032 21.2327,53.2352 20.8807,53.0382 C18.9737,51.9742 17.0827,50.8802 15.2217,49.7402 C14.8357,49.5042 14.5837,49.5022 14.2117,49.6802 C12.4867,50.5012 10.7507,51.3002 9.0157,52.1012 C7.8887,52.6222 7.0977,52.3752 6.4807,51.2982 C4.4167,47.6962 2.3567,44.0922 0.2997,40.4862 C-0.2333,39.5512 -0.0613,38.7992 0.8637,38.1402 C2.4427,37.0152 4.0267,35.8972 5.6287,34.8052 C6.0207,34.5382 6.0587,34.2722 6.0477,33.8122 C5.9967,31.6802 6.0107,29.5452 6.0567,27.4132 C6.0647,27.0152 6.0387,26.7822 5.6897,26.5442 C4.0887,25.4522 2.5067,24.3302 0.9237,23.2102 C-0.0993,22.4872 -0.2493,21.7822 0.3727,20.6922 C2.3807,17.1742 4.3897,13.6572 6.3997,10.1392 C7.1727,8.7882 7.8297,8.5842 9.2547,9.2522 C10.9157,10.0312 12.5817,10.8002 14.2317,11.6042 C14.6227,11.7942 14.8907,11.7882 15.2417,11.5112 C16.9707,10.1472 18.8657,9.0662 20.8977,8.2132 C21.1237,8.1182 21.3587,7.7752 21.3867,7.5252 C21.6117,5.5242 21.7867,3.5182 21.9777,1.5142 C22.0707,0.5402 22.6187,0.0082 23.5997,0.0062 C27.9097,-0.0018 32.2197,-0.0028 36.5287,0.0072 C37.4697,0.0092 38.0747,0.6092 38.1527,1.5432 C38.3127,3.4752 38.4817,5.4062 38.6247,7.3382 C38.6627,7.8512 38.9007,8.0862 39.3587,8.3332 C41.1897,9.3222 42.9977,10.3582 44.7657,11.4552 C45.2197,11.7362 45.5087,11.7772 45.9707,11.5512 C47.6637,10.7222 49.3777,9.9362 51.0857,9.1382 C52.1777,8.6282 52.9657,8.8692 53.5657,9.9162 C55.6307,13.5172 57.6907,17.1212 59.7457,20.7282 C60.3467,21.7812 60.1957,22.4822 59.2057,23.1882 C57.6467,24.2972 56.0847,25.4042 54.4997,26.4752 C54.1037,26.7432 53.9817,27.0262 54.0507,27.4732 C54.3747,29.5792 54.3667,31.6882 54.0497,33.7942 C53.9777,34.2752 54.1167,34.5732 54.5337,34.8542 C56.0777,35.8972 57.5927,36.9812 59.1167,38.0542 C60.2217,38.8322 60.3637,39.4932 59.6867,40.6772 C57.6637,44.2152 55.6347,47.7512 53.6227,51.2952 C53.2587,51.9382 52.7937,52.3622 51.8267,52.3552 Z" id="Stroke-1" stroke="#132835" stroke-width="2"></path>
                <polygon id="Stroke-3" stroke="#132835" stroke-width="1.846" points="18.1006 22.8254 31.0236 15.4404 42.1006 21.9024 31.0236 29.2864"></polygon>
                <polyline id="Stroke-5" stroke="#132835" stroke-width="1.846" points="31.0235 29.2869 31.0235 46.8259 18.1005 39.4409 18.1005 22.8259"></polyline>
                <polyline id="Stroke-7" stroke="#132835" stroke-width="1.846" points="42.1006 21.9021 42.1006 39.4411 31.0236 46.8251"></polyline>
                <polygon id="Stroke-9" stroke="#05AEA9" stroke-width="2" points="21.793 31.1331 21.793 24.9781 27.332 21.9021 31.947 24.6721 27.332 27.4411 27.332 33.9021"></polygon>
                <path d="M10.1006,30.6331 C10.1006,19.8631 18.8306,11.1331 29.6006,11.1331 C40.3706,11.1331 49.1006,19.8631 49.1006,30.6331 C49.1006,41.4031 40.3706,50.1331 29.6006,50.1331 C18.8306,50.1331 10.1006,41.4031 10.1006,30.6331 Z" id="Stroke-11" stroke="#132835" stroke-width="2"></path>
            </g>
        </g>
    </g>
</svg>